<svg xmlns="http://www.w3.org/2000/svg" viewBox="0 0 512 512">
  <defs>
    <linearGradient id="bg" x1="96" y1="48" x2="416" y2="464" gradientUnits="userSpaceOnUse">
      <stop offset="0" stop-color="#151519"/>
      <stop offset="0.48" stop-color="#050506"/>
      <stop offset="1" stop-color="#101814"/>
    </linearGradient>
    <radialGradient id="glow" cx="0" cy="0" r="1" gradientUnits="userSpaceOnUse" gradientTransform="translate(352 150) rotate(121) scale(295)">
      <stop offset="0" stop-color="#6BE3A4" stop-opacity="0.72"/>
      <stop offset="0.42" stop-color="#E07658" stop-opacity="0.24"/>
      <stop offset="1" stop-color="#050506" stop-opacity="0"/>
    </radialGradient>
    <filter id="shadow" x="-20%" y="-20%" width="140%" height="140%">
      <feDropShadow dx="0" dy="18" stdDeviation="18" flood-color="#000000" flood-opacity="0.45"/>
    </filter>
  </defs>
  <rect width="512" height="512" rx="112" fill="url(#bg)"/>
  <rect width="512" height="512" rx="112" fill="url(#glow)"/>
  <circle cx="168" cy="172" r="33" fill="#6BE3A4"/>
  <circle cx="256" cy="172" r="33" fill="#F2C063"/>
  <circle cx="344" cy="172" r="33" fill="#E07658"/>
  <g filter="url(#shadow)">
    <path d="M150 272c0-17.7 14.3-32 32-32h148c17.7 0 32 14.3 32 32s-14.3 32-32 32H182c-17.7 0-32-14.3-32-32Z" fill="#FAFAFA"/>
    <path d="M150 364c0-17.7 14.3-32 32-32h88c17.7 0 32 14.3 32 32s-14.3 32-32 32h-88c-17.7 0-32-14.3-32-32Z" fill="#B8B6B0"/>
  </g>
</svg>
